<?xml version="1.0" encoding="utf-8"?>
<!-- Generator: Adobe Illustrator 23.0.0, SVG Export Plug-In . SVG Version: 6.00 Build 0)  -->
<svg version="1.1" id="Camada_1" focusable="false" xmlns="http://www.w3.org/2000/svg" xmlns:xlink="http://www.w3.org/1999/xlink"
	 x="0px" y="0px" viewBox="0 0 576 512" style="enable-background:new 0 0 576 512;" xml:space="preserve">
<style type="text/css">
	.st0{fill:#FFFFFF;}
</style>
<path class="st0" d="M560,224h-29.5c-8.8-20-21.6-37.7-37.4-52.5L512,96h-32c-29.4,0-55.4,13.5-73,34.3c-7.6-1.1-15.1-2.3-23-2.3
	H256c-77.4,0-141.9,55-156.8,128H56c-14.8,0-26.5-13.5-23.5-28.8C34.7,215.8,45.4,208,57,208h1c3.3,0,6-2.7,6-6v-20c0-3.3-2.7-6-6-6
	c-28.5,0-53.9,20.4-57.5,48.6C-3.9,258.8,22.7,288,56,288h40c0,52.2,25.4,98.1,64,127.3V496c0,8.8,7.2,16,16,16h64
	c8.8,0,16-7.2,16-16v-48h128v48c0,8.8,7.2,16,16,16h64c8.8,0,16-7.2,16-16v-80.7c11.8-8.9,22.3-19.4,31.3-31.3H560
	c8.8,0,16-7.2,16-16V240C576,231.2,568.8,224,560,224z M432,288c-8.8,0-16-7.2-16-16s7.2-16,16-16s16,7.2,16,16S440.8,288,432,288z
	 M256,96h128c5.4,0,10.7,0.4,15.9,0.8c0-0.3,0.1-0.5,0.1-0.8c0-53-43-96-96-96s-96,43-96,96c0,2.1,0.5,4.1,0.6,6.2
	C223.8,98.3,239.6,96,256,96z"/>
</svg>
